<svg id="mainsvg" xmlns="http://www.w3.org/2000/svg" xmlns:xlink="http://www.w3.org/1999/xlink" version="1.1" x="0px" y="0px" enable-background="new 0 0 200 162.5" xml:space="preserve" viewBox="0 0 128 34"><path fill="#000" transform="translate(-2.208, 25.088)" d="M18.50-15.42Q18.50-13.63 17.65-12.06Q16.80-10.50 14.99-9.54Q13.18-8.58 10.43-8.58L10.43-8.58L6.69-8.58L6.69 0L2.21 0L2.21-22.34L10.43-22.34Q13.02-22.34 14.85-21.44Q16.67-20.54 17.58-18.98Q18.50-17.41 18.50-15.42L18.50-15.42ZM10.24-12.19Q12.10-12.19 12.99-13.04Q13.89-13.89 13.89-15.42L13.89-15.42Q13.89-18.69 10.24-18.69L10.24-18.69L6.69-18.69L6.69-12.19L10.24-12.19ZM29.54 0.29Q26.98 0.29 24.93-0.85Q22.88-1.98 21.71-4.06Q20.54-6.14 20.54-8.86L20.54-8.86Q20.54-11.58 21.74-13.66Q22.94-15.74 25.02-16.88Q27.10-18.02 29.66-18.02L29.66-18.02Q32.22-18.02 34.30-16.88Q36.38-15.74 37.58-13.66Q38.78-11.58 38.78-8.86L38.78-8.86Q38.78-6.14 37.55-4.06Q36.32-1.98 34.22-0.85Q32.13 0.29 29.54 0.29L29.54 0.29ZM29.54-3.62Q30.75-3.62 31.82-4.21Q32.90-4.80 33.54-5.98Q34.18-7.17 34.18-8.86L34.18-8.86Q34.18-11.39 32.85-12.75Q31.52-14.11 29.60-14.11L29.60-14.11Q27.68-14.11 26.38-12.75Q25.09-11.39 25.09-8.86L25.09-8.86Q25.09-6.34 26.35-4.98Q27.62-3.62 29.54-3.62L29.54-3.62ZM46.56-15.17Q47.42-16.38 48.94-17.20Q50.46-18.02 52.42-18.02L52.42-18.02Q54.69-18.02 56.53-16.90Q58.37-15.78 59.44-13.71Q60.51-11.65 60.51-8.93L60.51-8.93Q60.51-6.21 59.44-4.11Q58.37-2.02 56.53-0.86Q54.69 0.29 52.42 0.29L52.42 0.29Q50.46 0.29 48.98-0.51Q47.49-1.31 46.56-2.53L46.56-2.53L46.56 8.45L42.08 8.45L42.08-17.73L46.56-17.73L46.56-15.17ZM55.94-8.93Q55.94-10.53 55.28-11.70Q54.62-12.86 53.55-13.47Q52.48-14.08 51.23-14.08L51.23-14.08Q50.02-14.08 48.94-13.46Q47.87-12.83 47.22-11.65Q46.56-10.46 46.56-8.86L46.56-8.86Q46.56-7.26 47.22-6.08Q47.87-4.90 48.94-4.27Q50.02-3.65 51.23-3.65L51.23-3.65Q52.48-3.65 53.55-4.29Q54.62-4.93 55.28-6.11Q55.94-7.30 55.94-8.93L55.94-8.93ZM68.26-15.17Q69.12-16.38 70.64-17.20Q72.16-18.02 74.11-18.02L74.11-18.02Q76.38-18.02 78.22-16.90Q80.06-15.78 81.14-13.71Q82.21-11.65 82.21-8.93L82.21-8.93Q82.21-6.21 81.14-4.11Q80.06-2.02 78.22-0.86Q76.38 0.29 74.11 0.29L74.11 0.29Q72.16 0.29 70.67-0.51Q69.18-1.31 68.26-2.53L68.26-2.53L68.26 8.45L63.78 8.45L63.78-17.73L68.26-17.73L68.26-15.17ZM77.63-8.93Q77.63-10.53 76.98-11.70Q76.32-12.86 75.25-13.47Q74.18-14.08 72.93-14.08L72.93-14.08Q71.71-14.08 70.64-13.46Q69.57-12.83 68.91-11.65Q68.26-10.46 68.26-8.86L68.26-8.86Q68.26-7.26 68.91-6.08Q69.57-4.90 70.64-4.27Q71.71-3.65 72.93-3.65L72.93-3.65Q74.18-3.65 75.25-4.29Q76.32-4.93 76.98-6.11Q77.63-7.30 77.63-8.93L77.63-8.93ZM87.74-19.84Q86.56-19.84 85.78-20.59Q84.99-21.34 84.99-22.46L84.99-22.46Q84.99-23.58 85.78-24.34Q86.56-25.09 87.74-25.09L87.74-25.09Q88.93-25.09 89.71-24.34Q90.50-23.58 90.50-22.46L90.50-22.46Q90.50-21.34 89.71-20.59Q88.93-19.84 87.74-19.84L87.74-19.84ZM85.47-17.73L89.95-17.73L89.95 0L85.47 0L85.47-17.73ZM104.19-17.98Q107.36-17.98 109.31-15.98Q111.26-13.98 111.26-10.40L111.26-10.40L111.26 0L106.78 0L106.78-9.79Q106.78-11.90 105.73-13.04Q104.67-14.18 102.85-14.18L102.85-14.18Q100.99-14.18 99.92-13.04Q98.85-11.90 98.85-9.79L98.85-9.79L98.85 0L94.37 0L94.37-17.73L98.85-17.73L98.85-15.52Q99.74-16.67 101.14-17.33Q102.53-17.98 104.19-17.98L104.19-17.98ZM122.30 0.29Q120.13 0.29 118.40-0.50Q116.67-1.28 115.66-2.62Q114.66-3.97 114.56-5.60L114.56-5.60L119.07-5.60Q119.20-4.58 120.08-3.90Q120.96-3.23 122.27-3.23L122.27-3.23Q123.55-3.23 124.27-3.74Q124.99-4.26 124.99-5.06L124.99-5.06Q124.99-5.92 124.11-6.35Q123.23-6.78 121.31-7.30L121.31-7.30Q119.33-7.78 118.06-8.29Q116.80-8.80 115.89-9.86Q114.98-10.91 114.98-12.70L114.98-12.70Q114.98-14.18 115.82-15.39Q116.67-16.61 118.26-17.31Q119.84-18.02 121.98-18.02L121.98-18.02Q125.15-18.02 127.04-16.43Q128.93-14.85 129.12-12.16L129.12-12.16L124.83-12.16Q124.74-13.22 123.95-13.84Q123.17-14.46 121.86-14.46L121.86-14.46Q120.64-14.46 119.98-14.02Q119.33-13.57 119.33-12.77L119.33-12.77Q119.33-11.87 120.22-11.41Q121.12-10.94 123.01-10.46L123.01-10.46Q124.93-9.98 126.18-9.47Q127.42-8.96 128.34-7.89Q129.25-6.82 129.28-5.06L129.28-5.06Q129.28-3.52 128.43-2.30Q127.58-1.09 126-0.40Q124.42 0.29 122.30 0.29L122.30 0.29Z"/></svg>