<svg version="1.1" id="图层_1" xmlns="http://www.w3.org/2000/svg" xmlns:xlink="http://www.w3.org/1999/xlink" x="0" y="0" viewBox="0 0 462.3 140.9" style="enable-background:new 0 0 462.3 140.9" xml:space="preserve"><style>.st4{fill:#fff}</style><defs><path id="SVGID_1_" d="M-167.8-228.5h1l-1 1z"/></defs><clipPath id="SVGID_2_"><use xlink:href="#SVGID_1_" style="overflow:visible"/></clipPath><g><g transform="translate(71.75 95.04)"><path style="fill-opacity:0" d="M-71.7-95H69.5V34H-71.7z"/><path d="M18.8 7.1h-45.5c-1.8 0-3.4 1-4.3 2.5l-10.8 19.6c-.9 1.5-.3 3.5 1.3 4.4.5.3 1 .4 1.5.4h58c7.1 0 13-5.5 13.4-12.6.5-7.9-5.8-14.3-13.6-14.3z" style="fill:#1d91e8"/><path d="M5.3-93c-6.3-3.9-14.7-2-18.5 4.3 0 .1 0 .1-.1.1l-56.4 102c-3.9 6.3-2 14.6 4.3 18.6 2.1 1.3 4.6 2 7.1 2 4.7 0 9-2.4 11.4-6.4l56.4-102c4-6.4 2.1-14.7-4.2-18.6z" style="fill:#ff4072"/><path d="m67.5 13.5-23.9-43c-3.9-6.2-12.3-8.2-18.5-4.3-6.2 3.8-8.2 12-4.5 18.3l23.9 43.1c2.4 4 6.7 6.4 11.4 6.4 6.3 0 11.7-4.3 13.2-10.3.8-3.6.2-7.1-1.6-10.2zM17.4-62.4c-7.4 0-13.3 6-13.3 13.3s6 13.3 13.3 13.3c7.4 0 13.3-6 13.3-13.3.2-7.3-5.8-13.3-13.3-13.3z" style="fill:#ffcd27"/></g><path class="st4" d="M359.3-41.7c-2 0-3.7.7-5.1 2-1.3 1.4-2 3.1-2 5.1v.2c-.7-.6-1.4-1.3-2.3-1.9-2.1-1.6-4.5-2.9-7.4-3.9-2.8-1-5.9-1.5-9.3-1.5-5.3 0-10 1.4-14.4 4.2-4.3 2.8-7.7 6.6-10.3 11.5-2.6 4.9-3.8 10.6-3.8 17s1.3 12 3.8 16.9 6 8.8 10.4 11.5c4.4 2.8 9.3 4.2 14.7 4.2 3 0 5.7-.5 8.3-1.5 2.5-1 4.8-2.2 6.6-3.6 1.4-1 2.6-2.1 3.5-3.2 0 2 .7 3.6 2 5s3 2.1 5.1 2.1c2 0 3.7-.7 5.1-2.1 1.3-1.4 2-3.1 2-5.1v-49.8c0-2.1-.7-3.8-2-5.2-1.2-1.3-2.9-1.9-4.9-1.9zM350.6 1c-1.5 3-3.5 5.3-6.1 7.1-2.6 1.7-5.6 2.6-9.1 2.6-3.4 0-6.4-.9-8.9-2.6-2.6-1.7-4.6-4.1-6-7.1-1.5-3-2.2-6.3-2.2-10 0-3.8.7-7.1 2.2-10.1 1.4-3 3.5-5.3 6-7.1 2.6-1.7 5.6-2.6 8.9-2.6 3.5 0 6.5.9 9.1 2.6s4.6 4.1 6.1 7.1c1.4 3 2.2 6.4 2.2 10.1 0 3.7-.7 7-2.2 10zM88.3-64.7c-2 0-3.7.7-5.1 2-1.4 1.4-2.1 3.1-2.1 5.1v72.7c0 2 .7 3.7 2 5.1s3 2.1 4.9 2.1c2 0 3.7-.7 5.1-2.1s2-3.1 2-5.1v-72.7c0-2-.6-3.7-1.9-5.1-1.2-1.3-2.8-2-4.9-2zM388.9-60.9c-1.1-.9-3-1.3-5.8-1.3-2.5 0-4.4.4-5.6 1.2s-1.8 2.4-1.8 4.7v2.2c0 2.2.5 3.7 1.6 4.6 1.1.9 3 1.3 5.6 1.3 2.7 0 4.6-.4 5.8-1.2 1.2-.8 1.8-2.4 1.8-4.6v-2.2c.1-2.3-.5-3.9-1.6-4.7zM150.5-37.6c-4.8-2.8-10.2-4.2-16.2-4.2s-11.3 1.4-16.2 4.2c-4.8 2.8-8.7 6.6-11.6 11.5s-4.3 10.6-4.3 17 1.4 12.1 4.3 17 6.7 8.7 11.6 11.5c4.8 2.7 10.2 4.1 16.2 4.1s11.4-1.4 16.2-4.1 8.7-6.6 11.5-11.5c2.9-4.9 4.3-10.6 4.3-17s-1.4-12.1-4.3-17c-2.8-4.8-6.7-8.7-11.5-11.5zm-.7 38.9c-1.6 2.9-3.7 5.2-6.4 6.9-2.7 1.6-5.7 2.5-9 2.5s-6.3-.8-9-2.5c-2.7-1.6-4.9-3.9-6.5-6.9-1.6-2.9-2.4-6.4-2.4-10.3 0-4 .8-7.5 2.4-10.4s3.8-5.2 6.5-6.9c2.7-1.6 5.7-2.5 9-2.5s6.3.8 9 2.5c2.7 1.6 4.8 3.9 6.4 6.9 1.6 2.9 2.4 6.4 2.4 10.4 0 3.9-.8 7.3-2.4 10.3zM225.5-41.7c-2 0-3.7.7-5.1 2-1.3 1.4-2 3.1-2 5.1v1.3c-.9-1-2-2.1-3.3-3.1-2-1.6-4.4-2.9-7.1-3.9-2.7-1-5.8-1.5-9.1-1.5-5.4 0-10.3 1.4-14.7 4.2s-7.9 6.6-10.5 11.5-3.9 10.6-3.9 17 1.3 12 3.9 16.9c2.6 4.9 6.1 8.8 10.6 11.5 4.5 2.8 9.5 4.2 15.1 4.2 2.8 0 5.5-.5 8-1.5s4.7-2.2 6.5-3.6 3.3-2.8 4.4-4.3c.1-.1.1-.2.2-.2v5.7c0 4.2-1.4 7.4-4.2 9.8s-7.2 3.5-13.1 3.5c-1.6 0-3.5-.3-5.7-.9s-4.1-1.2-6-2c-1.8-.7-3.1-1.2-3.9-1.4-1.7-.6-3.4-.5-4.9.3-1.6.8-2.7 2.4-3.4 4.6-.5 1.7-.4 3.4.5 4.9s2.5 2.8 4.9 3.8c1.2.5 2.9 1 5.2 1.5s4.7 1 7.2 1.4 4.5.6 6.1.6c5.5 0 10.6-.9 15.4-2.8 4.8-1.9 8.7-4.8 11.6-8.9 2.9-4.1 4.4-9.6 4.4-16.4v-52.4c0-2.1-.7-3.8-2-5.2-1.4-1.1-3-1.7-5.1-1.7zM216.8 1c-1.5 3-3.6 5.3-6.2 7.1-2.7 1.7-5.8 2.6-9.4 2.6-3.5 0-6.6-.9-9.3-2.6S187.2 4 185.7 1s-2.2-6.3-2.2-10c0-3.8.7-7.1 2.2-10.1s3.6-5.3 6.2-7.1c2.7-1.7 5.8-2.6 9.3-2.6 3.6 0 6.7.9 9.4 2.6s4.7 4.1 6.2 7.1S219-12.7 219-9s-.7 7-2.2 10zM285.5-37.6c-4.8-2.8-10.2-4.2-16.2-4.2s-11.3 1.4-16.2 4.2c-4.8 2.8-8.7 6.6-11.5 11.5-2.9 4.9-4.3 10.6-4.3 17s1.4 12.1 4.3 17 6.7 8.7 11.5 11.5c4.8 2.7 10.2 4.1 16.2 4.1s11.4-1.4 16.2-4.1c4.8-2.7 8.7-6.6 11.5-11.5 2.9-4.9 4.3-10.6 4.3-17s-1.4-12.1-4.3-17c-2.9-4.8-6.7-8.7-11.5-11.5zm-.7 38.9c-1.6 2.9-3.8 5.2-6.5 6.9-2.7 1.6-5.7 2.5-9 2.5s-6.3-.8-9-2.5c-2.7-1.6-4.9-3.9-6.5-6.9-1.6-2.9-2.4-6.4-2.4-10.3 0-4 .8-7.5 2.4-10.4 1.6-2.9 3.8-5.2 6.5-6.9 2.7-1.6 5.7-2.5 9-2.5s6.3.8 9 2.5c2.7 1.6 4.9 3.9 6.5 6.9 1.6 2.9 2.4 6.4 2.4 10.4 0 3.9-.8 7.3-2.4 10.3zM383.2-40.6c-2 0-3.7.7-5.1 2-1.3 1.4-2 3.1-2 5.1v48.6c0 2 .7 3.7 2 5.1s3 2.1 5.1 2.1 3.7-.7 5.1-2.1c1.3-1.4 2-3.1 2-5.1v-48.6c0-2-.7-3.7-2-5.1-1.4-1.3-3.1-2-5.1-2z" transform="translate(71.75 95.04)"/></g></svg>